<svg width="126" height="170" viewBox="0 0 126 170" fill="none" xmlns="http://www.w3.org/2000/svg">
<path d="M30.8052 89.5617C30.8052 99.5028 38.864 107.562 48.8052 107.562L75.8052 107.562C78.5666 107.562 80.8052 105.323 80.8052 102.562L80.8052 69.3369C80.8052 63.8141 76.328 59.3369 70.8052 59.3369L35.8052 59.3369C33.0437 59.3369 30.8052 61.5755 30.8052 64.3369L30.8052 89.5617Z" fill="#FFF1DA"/>
<path d="M79.3891 103.567C78.0307 103.867 76.7077 104.421 75.5022 105.196C72.3614 107.166 70.5341 109.978 71.421 111.476C72.308 112.974 75.5731 112.59 78.7138 110.621C79.9356 109.873 81.021 108.918 81.9032 107.814C82.3125 107.28 82.386 106.615 82.0908 106.118L80.9386 104.172C80.6454 103.674 80.0374 103.437 79.3891 103.567Z" fill="#D5D6DB"/>
<path d="M71.5021 77.0013C70.5171 77.2185 69.5577 77.6209 68.6834 78.1829C66.4066 79.6107 65.0808 81.6493 65.7234 82.7347C66.366 83.82 68.7345 83.542 71.0111 82.1143C71.897 81.5719 72.6839 80.8788 73.3237 80.078C73.6202 79.6913 73.6733 79.2097 73.4593 78.8494L72.6251 77.4403C72.4128 77.0789 71.9722 76.9067 71.5021 77.0013Z" fill="#D5D6DB"/>
<path d="M58.688 78.1138C58.4687 78.0897 58.2349 78.1472 58.0322 78.2747L52.684 81.629C52.2366 81.9087 52.0576 82.4474 52.2845 82.8324C52.3364 82.9206 52.4075 82.9959 52.4937 83.054L65.6753 91.9952L83.5088 80.8103L58.688 78.1138Z" fill="#029BC5"/>
<path d="M115.065 76.8495L66.5329 106.918L37.8201 118.163L23.177 121.028L21.566 118.334L102.461 69.1773C104.872 67.706 107.558 66.803 110.246 66.5598C111.424 66.4595 112.587 66.4981 113.708 66.6741C114.702 66.8224 115.645 67.1085 116.508 67.5239C117.472 67.9946 119.307 68.0488 119.901 68.9866C119.903 68.9851 121.305 73.2903 115.065 76.8495Z" fill="#E1E6E9"/>
<path d="M67.1762 102.94L46.1809 135.88C45.9187 136.343 46.0744 136.861 46.5283 137.037C46.8068 137.146 47.1477 137.103 47.4341 136.924L52.7781 133.587C53.806 132.945 54.7161 132.13 55.4523 131.191L96.1686 84.0796L67.1762 102.94Z" fill="#029BC5"/>
<path d="M14.1966 101.84C13.8464 101.722 13.4296 101.783 13.0778 102.004L8.66029 104.773C8.05837 105.15 7.81852 105.874 8.12438 106.392C8.18266 106.49 8.25836 106.577 8.3491 106.648L20.7259 116.403L33.7389 108.404L14.1966 101.84Z" fill="#029BC5"/>
<path d="M24.8743 118.162L18.2128 127.344C18.1152 127.476 18.1381 127.642 18.2641 127.714C18.3549 127.766 18.4789 127.756 18.5797 127.69L22.708 125.115C22.74 125.095 22.7691 125.07 22.7931 125.042L32.5266 113.394L24.8743 118.162Z" fill="#029BC5"/>
<path d="M112.911 67.0699C111.757 66.8874 110.559 66.8485 109.346 66.9534C108.165 68.5783 107.411 70.4037 107.157 72.2475C107.139 72.6179 107.442 72.8844 107.835 72.8429C107.957 72.8299 108.079 72.7877 108.188 72.72L115.796 67.9523C114.906 67.5207 113.935 67.2236 112.911 67.0699Z" fill="#029BC5"/>
<path d="M96.3322 75.8371L101.299 72.7498L105.926 80.4943L100.959 83.5816L96.3322 75.8371Z" fill="#D5D6DB"/>
<path d="M93.2066 78.9001C92.6081 79.2732 92.3688 79.9905 92.6727 80.502L93.165 81.3306C93.4889 81.8291 94.2282 81.9167 94.8164 81.5263C95.3763 81.1545 95.6017 80.4787 95.3319 79.9797L94.8396 79.151C94.536 78.64 93.8052 78.5275 93.2066 78.9001Z" fill="#3A556A"/>
<path d="M88.7423 81.6286C88.1437 82.0018 87.9045 82.7191 88.2084 83.2305L88.7007 84.0592C89.0245 84.5576 89.7638 84.6453 90.3521 84.2549C90.9119 83.8831 91.1373 83.2073 90.8676 82.7082L90.3752 81.8796C90.0714 81.3687 89.3406 81.2562 88.7423 81.6286Z" fill="#3A556A"/>
<path d="M84.2764 84.3581C83.6785 84.7318 83.4401 85.4482 83.7438 85.9592L84.2361 86.7878C84.5599 87.2863 85.2992 87.3739 85.8875 86.9835C86.4473 86.6117 86.6727 85.9359 86.403 85.4369L85.9106 84.6083C85.6068 84.0968 84.8752 83.9848 84.2764 84.3581Z" fill="#3A556A"/>
<path d="M79.8121 87.0866C79.2142 87.4603 78.9758 88.1767 79.2794 88.6878L79.7717 89.5164C80.0956 90.0149 80.8348 90.1025 81.4231 89.7121C81.9829 89.3403 82.2084 88.6645 81.9386 88.1655L81.4463 87.3368C81.1422 86.8255 80.4106 86.7135 79.8121 87.0866Z" fill="#3A556A"/>
<path d="M75.3481 89.8154C74.7499 90.1892 74.5113 90.9059 74.8151 91.4172L75.3077 92.2462C75.6114 92.7573 76.3427 92.8692 76.941 92.4962C77.5394 92.1232 77.7783 91.4065 77.4746 90.8955L76.982 90.0665C76.6791 89.555 75.9481 89.4423 75.3494 89.8146C75.3489 89.8149 75.3486 89.8151 75.3481 89.8154Z" fill="#3A556A"/>
<path d="M70.8837 92.544C70.2855 92.9178 70.047 93.6345 70.3508 94.1458L70.8434 94.9748C71.147 95.4858 71.8783 95.5978 72.4767 95.2248C73.075 94.8518 73.3139 94.1351 73.0103 93.6241L72.5177 92.7951C72.2148 92.2835 71.4838 92.1709 70.885 92.5432C70.8845 92.5435 70.884 92.5438 70.8837 92.544Z" fill="#3A556A"/>
<path d="M66.4191 95.2727C65.8209 95.6465 65.5824 96.3632 65.8862 96.8745L66.3788 97.7034C66.6832 98.214 67.4148 98.3248 68.0125 97.9513C68.6092 97.5785 68.8476 96.8633 68.5454 96.3529L68.0528 95.5239C67.7492 95.0125 67.018 94.9 66.4191 95.2727Z" fill="#3A556A"/>
<path d="M61.9545 98.0013C61.3563 98.3751 61.1178 99.0919 61.4216 99.6031L61.9142 100.432C62.2186 100.943 62.9502 101.054 63.5479 100.68C64.1446 100.307 64.383 99.592 64.0808 99.0816L63.5882 98.2525C63.2846 97.7411 62.5534 97.6286 61.9545 98.0013Z" fill="#3A556A"/>
<path d="M57.4903 100.73C56.8921 101.104 56.6535 101.82 56.9573 102.332L57.4499 103.161C57.7543 103.671 58.486 103.782 59.0837 103.408C59.6804 103.036 59.9188 102.32 59.6165 101.81L59.1239 100.981C58.8201 100.47 58.0889 100.357 57.4903 100.73Z" fill="#3A556A"/>
<path d="M53.0245 103.459C52.4261 103.832 52.1872 104.549 52.4909 105.06L52.4915 105.061L52.9841 105.89C53.2885 106.401 54.0201 106.511 54.6179 106.138C55.2146 105.765 55.453 105.05 55.1507 104.54L54.6581 103.71C54.3546 103.199 53.6233 103.087 53.0245 103.459Z" fill="#3A556A"/>
<path d="M48.5612 106.187C47.9629 106.56 47.724 107.277 48.0276 107.788L48.0283 107.789L48.5209 108.618C48.8253 109.128 49.5569 109.239 50.1546 108.866C50.7514 108.493 50.9898 107.778 50.6875 107.267L50.1949 106.438C49.8911 105.927 49.1599 105.815 48.5612 106.187Z" fill="#3A556A"/>
</svg>
