<svg width="21" height="18" viewBox="0 0 21 18" fill="none" xmlns="http://www.w3.org/2000/svg">
<path fill-rule="evenodd" clip-rule="evenodd" d="M3.60015 5.70003C3.76584 5.47912 4.07924 5.43434 4.30015 5.60003L9.70015 9.65003C9.87793 9.78336 10.1224 9.78336 10.3002 9.65003L15.7002 5.60003C15.9211 5.43434 16.2345 5.47912 16.4002 5.70003C16.5658 5.92094 16.5211 6.23434 16.3002 6.40003L10.9002 10.45C10.3668 10.85 9.63348 10.85 9.10015 10.45L3.70015 6.40003C3.47924 6.23434 3.43447 5.92094 3.60015 5.70003Z" fill="#39425D"/>
<path fill-rule="evenodd" clip-rule="evenodd" d="M16.0001 1H5.00012C2.79098 1 1.00012 2.79086 1.00012 5V13C1.00012 15.2091 2.79098 17 5.00012 17H16.0001C18.2093 17 20.0001 15.2091 20.0001 13V5C20.0001 2.79086 18.2093 1 16.0001 1ZM5.00012 0C2.2387 0 0.00012207 2.23858 0.00012207 5V13C0.00012207 15.7614 2.2387 18 5.00012 18H16.0001C18.7615 18 21.0001 15.7614 21.0001 13V5C21.0001 2.23858 18.7615 0 16.0001 0H5.00012Z" fill="#39425D"/>
</svg>
