<svg width="14" height="14" viewBox="0 0 14 14" fill="none" xmlns="http://www.w3.org/2000/svg">
<path d="M13.6544 0.150827C13.2855 0.0428744 4.26244 -0.855475 1.09361 3.42567C-0.309832 5.32223 -0.330914 7.9221 1.02328 11.1525C0.679764 11.8655 0.379038 12.6166 0.133956 13.4091C0.0594445 13.6499 0.194222 13.9052 0.434764 13.9795C0.479608 13.9934 0.525026 14 0.569869 14C0.764338 14 0.944888 13.8744 1.00515 13.6787C3.42037 5.87028 11.2693 2.09267 13.6762 1.13835C13.9105 1.0454 14.2235 0.317405 13.6544 0.150827Z" fill="#84829A"/>
<path d="M2.48743 12.1297C3.78933 12.6778 5.09104 12.9587 6.30155 12.9587C7.38959 12.9587 8.40429 12.7342 9.27867 12.279C11.0384 11.363 12.1138 9.6108 12.3884 7.21131C12.6681 4.76589 13.0164 3.23416 13.307 2.29712C10.7206 3.49428 5.175 6.5974 2.48743 12.1297Z" fill="#84829A"/>
</svg>
