<svg width="17" height="27" viewBox="0 0 17 27" fill="none" xmlns="http://www.w3.org/2000/svg">
<path fill-rule="evenodd" clip-rule="evenodd" d="M8.38891 26.7614C7.75378 26.7614 7.23891 26.2465 7.23891 25.6114L7.23891 2.00024C7.23891 1.36511 7.75378 0.850243 8.38891 0.850243C9.02404 0.850243 9.53891 1.36511 9.53891 2.00024L9.53891 25.6114C9.53891 26.2465 9.02404 26.7614 8.38891 26.7614Z" fill="black"/>
<path fill-rule="evenodd" clip-rule="evenodd" d="M15.8132 9.42453C15.3641 9.87363 14.636 9.87363 14.1869 9.42453L8.38891 3.62659L2.59097 9.42452C2.14187 9.87363 1.41373 9.87363 0.964629 9.42452C0.515527 8.97542 0.515527 8.24728 0.964629 7.79818L7.57574 1.18707C8.02484 0.737965 8.75298 0.737965 9.20209 1.18707L15.8132 7.79818C16.2623 8.24728 16.2623 8.97542 15.8132 9.42453Z" fill="black"/>
</svg>
