<svg width="23" height="18" viewBox="0 0 23 18" fill="none" xmlns="http://www.w3.org/2000/svg">
<path fill-rule="evenodd" clip-rule="evenodd" d="M23 1C23 1.55228 22.5523 2 22 2L1 2C0.447716 2 3.91405e-08 1.55228 8.74228e-08 0.999998C1.35705e-07 0.447713 0.447716 -1.97158e-06 1 -1.9233e-06L22 -8.74228e-08C22.5523 -3.91405e-08 23 0.447715 23 1Z" fill="black"/>
<path fill-rule="evenodd" clip-rule="evenodd" d="M23 9C23 9.55228 22.5523 10 22 10L1 10C0.447716 10 3.91405e-08 9.55228 8.74228e-08 9C1.35705e-07 8.44771 0.447716 8 1 8L22 8C22.5523 8 23 8.44772 23 9Z" fill="black"/>
<path fill-rule="evenodd" clip-rule="evenodd" d="M23 17C23 17.5523 22.5523 18 22 18L1 18C0.447716 18 3.91405e-08 17.5523 8.74228e-08 17C1.35705e-07 16.4477 0.447716 16 1 16L22 16C22.5523 16 23 16.4477 23 17Z" fill="black"/>
</svg>
