<svg width="20" height="20" viewBox="0 0 20 20" fill="none" xmlns="http://www.w3.org/2000/svg">
<path fill-rule="evenodd" clip-rule="evenodd" d="M7.54548 17.5454C7.64589 17.5454 7.72729 17.464 7.72729 17.3636C7.72729 17.2632 7.64589 17.1818 7.54548 17.1818C7.44506 17.1818 7.36366 17.2632 7.36366 17.3636C7.36366 17.464 7.44506 17.5454 7.54548 17.5454ZM5.72729 17.3636C5.72729 16.3594 6.54132 15.5454 7.54548 15.5454C8.54963 15.5454 9.36366 16.3594 9.36366 17.3636C9.36366 18.3677 8.54963 19.1818 7.54548 19.1818C6.54132 19.1818 5.72729 18.3677 5.72729 17.3636Z" fill="black"/>
<path fill-rule="evenodd" clip-rule="evenodd" d="M16.5455 17.5454C16.6459 17.5454 16.7273 17.464 16.7273 17.3636C16.7273 17.2632 16.6459 17.1818 16.5455 17.1818C16.4451 17.1818 16.3637 17.2632 16.3637 17.3636C16.3637 17.464 16.4451 17.5454 16.5455 17.5454ZM14.7273 17.3636C14.7273 16.3594 15.5413 15.5454 16.5455 15.5454C17.5496 15.5454 18.3637 16.3594 18.3637 17.3636C18.3637 18.3677 17.5496 19.1818 16.5455 19.1818C15.5413 19.1818 14.7273 18.3677 14.7273 17.3636Z" fill="black"/>
<path fill-rule="evenodd" clip-rule="evenodd" d="M0 1C0 0.447715 0.447715 0 1 0H4.27273C4.74935 0 5.15974 0.336385 5.25328 0.803743L7.4463 11.7606C7.47539 11.9071 7.55508 12.0387 7.67142 12.1324C7.78776 12.226 7.93333 12.2758 8.08266 12.2729L8.10182 12.2727H16.0545L16.0737 12.2729C16.223 12.2758 16.3686 12.226 16.4849 12.1324C16.6005 12.0393 16.6799 11.9089 16.7095 11.7635C16.7097 11.7626 16.7099 11.7616 16.7101 11.7606L17.7913 6.09091H8.5C7.94772 6.09091 7.5 5.64319 7.5 5.09091C7.5 4.53862 7.94772 4.09091 8.5 4.09091H19C19.298 4.09091 19.5805 4.22384 19.7705 4.45346C19.9605 4.68309 20.0381 4.98549 19.9823 5.27824L18.6718 12.1503C18.5512 12.7572 18.2211 13.3023 17.7391 13.6903C17.2599 14.0761 16.661 14.282 16.0461 14.2727H8.11029C7.49541 14.282 6.89649 14.0761 6.41729 13.6903C5.93554 13.3025 5.60547 12.7577 5.48479 12.1511C5.48473 12.1508 5.48484 12.1514 5.48479 12.1511L3.45304 2H1C0.447715 2 0 1.55228 0 1Z" fill="black"/>
</svg>
