<svg width="19" height="19" viewBox="0 0 19 19" fill="none" xmlns="http://www.w3.org/2000/svg">
<path fill-rule="evenodd" clip-rule="evenodd" d="M8.55555 2C4.93502 2 2 4.93502 2 8.55555C2 12.1761 4.93502 15.1111 8.55555 15.1111C12.1761 15.1111 15.1111 12.1761 15.1111 8.55555C15.1111 4.93502 12.1761 2 8.55555 2ZM0 8.55555C0 3.83045 3.83045 0 8.55555 0C13.2806 0 17.1111 3.83045 17.1111 8.55555C17.1111 13.2806 13.2806 17.1111 8.55555 17.1111C3.83045 17.1111 0 13.2806 0 8.55555Z" fill="black"/>
<path fill-rule="evenodd" clip-rule="evenodd" d="M13.1846 13.1845C13.5751 12.794 14.2082 12.794 14.5988 13.1845L18.7071 17.2928C19.0976 17.6833 19.0976 18.3165 18.7071 18.707C18.3166 19.0976 17.6834 19.0976 17.2929 18.707L13.1846 14.5987C12.794 14.2082 12.794 13.575 13.1846 13.1845Z" fill="black"/>
</svg>
